<svg xmlns="http://www.w3.org/2000/svg" viewBox="0 0 1200 760" role="img" aria-labelledby="title desc">
  <title id="title">Silk Road duo mascot</title>
  <desc id="desc">Comical duo of travelers: a smiling mullet-haired explorer in plaid Tang jacket and a bald bearded explorer in jade Tang jacket with white watch.</desc>
  <defs>
    <linearGradient id="bg" x1="0" y1="0" x2="1" y2="1">
      <stop offset="0%" stop-color="#8b1621"/>
      <stop offset="60%" stop-color="#a6262f"/>
      <stop offset="100%" stop-color="#1f6b5f"/>
    </linearGradient>
    <pattern id="plaid" width="28" height="28" patternUnits="userSpaceOnUse">
      <rect width="28" height="28" fill="#bd3039"/>
      <rect x="0" y="10" width="28" height="4" fill="#f2c86d" opacity="0.9"/>
      <rect x="10" y="0" width="4" height="28" fill="#f2c86d" opacity="0.9"/>
      <rect x="0" y="2" width="28" height="2" fill="#f7e1ab" opacity="0.6"/>
      <rect x="2" y="0" width="2" height="28" fill="#f7e1ab" opacity="0.6"/>
    </pattern>
    <filter id="shadow" x="-20%" y="-20%" width="140%" height="140%">
      <feDropShadow dx="0" dy="8" stdDeviation="8" flood-color="#130c0a" flood-opacity="0.35"/>
    </filter>
  </defs>

  <rect width="1200" height="760" rx="36" fill="url(#bg)"/>
  <g opacity="0.2" fill="none" stroke="#f2c86d" stroke-width="8">
    <path d="M40 120c90 0 90 70 180 70s90-70 180-70 90 70 180 70 90-70 180-70 90 70 180 70"/>
    <path d="M40 640c90 0 90-70 180-70s90 70 180 70 90-70 180-70 90 70 180 70 90-70 180-70"/>
  </g>

  <g transform="translate(120 120)" filter="url(#shadow)">
    <ellipse cx="200" cy="450" rx="170" ry="42" fill="#2f1814" opacity="0.36"/>
    <circle cx="200" cy="140" r="74" fill="#f4c9a1"/>
    <path d="M124 144c16-58 52-76 86-74 24 1 48 11 66 36l-7 35-32-28-52 16-38 15z" fill="#1a1312"/>
    <path d="M140 135c-18 8-29 26-32 53 20-10 30-22 35-36z" fill="#1a1312"/>
    <circle cx="172" cy="146" r="8" fill="#1d1614"/>
    <circle cx="226" cy="150" r="8" fill="#1d1614"/>
    <path d="M172 184c14 16 37 20 63 3" stroke="#8f2d2a" stroke-width="6" fill="none" stroke-linecap="round"/>
    <rect x="108" y="212" width="182" height="210" rx="28" fill="url(#plaid)" stroke="#f2c86d" stroke-width="6"/>
    <path d="M140 238h120M140 278h120" stroke="#f9e7ba" stroke-width="4" opacity="0.85"/>
    <circle cx="200" cy="238" r="5" fill="#f2c86d"/>
    <circle cx="200" cy="272" r="5" fill="#f2c86d"/>
    <circle cx="200" cy="306" r="5" fill="#f2c86d"/>
    <rect x="68" y="238" width="56" height="150" rx="26" fill="url(#plaid)" stroke="#f2c86d" stroke-width="5"/>
    <rect x="276" y="238" width="56" height="150" rx="26" fill="url(#plaid)" stroke="#f2c86d" stroke-width="5"/>
    <rect x="144" y="420" width="42" height="144" rx="20" fill="#1f1a18"/>
    <rect x="214" y="420" width="42" height="144" rx="20" fill="#1f1a18"/>
    <rect x="133" y="554" width="66" height="24" rx="8" fill="#201110"/>
    <rect x="202" y="554" width="66" height="24" rx="8" fill="#201110"/>
    <path d="M320 356l74 18-44 28-42-15z" fill="#f3d78f" stroke="#26150f" stroke-width="4"/>
    <path d="M364 375l16 7" stroke="#26150f" stroke-width="4"/>
  </g>

  <g transform="translate(620 115)" filter="url(#shadow)">
    <ellipse cx="200" cy="455" rx="170" ry="42" fill="#2f1814" opacity="0.36"/>
    <circle cx="200" cy="140" r="74" fill="#f0c39a"/>
    <ellipse cx="200" cy="85" rx="52" ry="36" fill="#d8b08c"/>
    <path d="M157 165c14 42 72 54 96 0 1 40-16 72-48 72s-52-28-48-72z" fill="#38241e"/>
    <circle cx="176" cy="146" r="8" fill="#1d1614"/>
    <circle cx="226" cy="146" r="8" fill="#1d1614"/>
    <path d="M177 186c10 11 36 14 51-2" stroke="#7e2f2a" stroke-width="6" fill="none" stroke-linecap="round"/>
    <rect x="112" y="212" width="176" height="210" rx="28" fill="#1e6c5e" stroke="#f2c86d" stroke-width="6"/>
    <path d="M145 246h110M145 282h110" stroke="#a3d5c9" stroke-width="4" opacity="0.7"/>
    <circle cx="200" cy="238" r="5" fill="#f2c86d"/>
    <circle cx="200" cy="272" r="5" fill="#f2c86d"/>
    <circle cx="200" cy="306" r="5" fill="#f2c86d"/>
    <rect x="74" y="238" width="54" height="150" rx="26" fill="#1e6c5e" stroke="#f2c86d" stroke-width="5"/>
    <rect x="272" y="238" width="54" height="150" rx="26" fill="#1e6c5e" stroke="#f2c86d" stroke-width="5"/>
    <rect x="288" y="338" width="36" height="20" rx="8" fill="#f5f5f5" stroke="#3d3d3d" stroke-width="3"/>
    <rect x="145" y="420" width="42" height="144" rx="20" fill="#1f1a18"/>
    <rect x="213" y="420" width="42" height="144" rx="20" fill="#1f1a18"/>
    <rect x="133" y="554" width="66" height="24" rx="8" fill="#201110"/>
    <rect x="201" y="554" width="66" height="24" rx="8" fill="#201110"/>
    <path d="M42 350c35-15 70-12 98 6-27 12-59 13-95 1z" fill="#f0d79b" stroke="#2b1911" stroke-width="4"/>
    <circle cx="66" cy="356" r="9" fill="#dfaf3a"/>
  </g>
</svg>
